<svg width="25" height="25" viewBox="0 0 25 25" fill="none" xmlns="http://www.w3.org/2000/svg">
<path fill-rule="evenodd" clip-rule="evenodd" d="M12.7266 1.89068L20.9415 3.72563C21.3989 3.82781 21.724 4.23398 21.7235 4.70268L21.7126 14.6894C21.7104 16.6955 20.7058 18.5678 19.0353 19.6788L12.7025 23.8907L6.37895 19.665C4.71098 18.5503 3.71041 16.6759 3.7126 14.6698L3.7235 4.68303C3.72402 4.21433 4.04999 3.80887 4.50764 3.70769L12.7266 1.89068ZM12.7168 10.8908L9.72005 7.88741L7.71783 9.88508L10.7145 12.8888L7.71136 15.8851L9.70904 17.8874L12.7125 14.891L15.7091 17.8939L17.7111 15.8961L14.7146 12.8931L17.7178 9.89599L15.7199 7.89395L12.7168 10.8908Z" fill="#0096C7"/>
</svg>
