<svg width="21" height="21" viewBox="0 0 21 21" fill="none" xmlns="http://www.w3.org/2000/svg">
<path d="M10.2708 18.5456C5.66846 18.5456 1.9375 14.8146 1.9375 10.2122C1.9375 5.60986 5.66846 1.87891 10.2708 1.87891C14.8732 1.87891 18.6042 5.60986 18.6042 10.2122C18.6042 14.8146 14.8732 18.5456 10.2708 18.5456ZM8.36252 16.6017C7.56036 14.9005 7.0686 13.0241 6.96026 11.0456H3.65574C3.98583 13.6927 5.86783 15.8578 8.36252 16.6017ZM8.62975 11.0456C8.75508 13.0779 9.33567 14.987 10.2708 16.6722C11.206 14.987 11.7866 13.0779 11.9119 11.0456H8.62975ZM16.8859 11.0456H13.5814C13.4731 13.0241 12.9813 14.9005 12.1792 16.6017C14.6738 15.8578 16.5558 13.6927 16.8859 11.0456ZM3.65574 9.37891H6.96026C7.0686 7.40038 7.56036 5.52396 8.36252 3.82271C5.86783 4.56668 3.98583 6.73182 3.65574 9.37891ZM8.62975 9.37891H11.9119C11.7866 7.34659 11.206 5.43745 10.2708 3.75223C9.33567 5.43745 8.75508 7.34659 8.62975 9.37891ZM12.1792 3.82271C12.9813 5.52396 13.4731 7.40038 13.5814 9.37891H16.8859C16.5558 6.73182 14.6738 4.56668 12.1792 3.82271Z" fill="#393939"/>
</svg>
