<svg width="25" height="24" viewBox="0 0 25 24" fill="none" xmlns="http://www.w3.org/2000/svg">
<path fill-rule="evenodd" clip-rule="evenodd" d="M3.32031 5.25C3.32031 4.83579 3.6561 4.5 4.07031 4.5H20.5703C20.9845 4.5 21.3203 4.83579 21.3203 5.25C21.3203 5.66421 20.9845 6 20.5703 6H4.07031C3.6561 6 3.32031 5.66421 3.32031 5.25ZM3.32031 9.75C3.32031 9.33579 3.6561 9 4.07031 9H20.5703C20.9845 9 21.3203 9.33579 21.3203 9.75C21.3203 10.1642 20.9845 10.5 20.5703 10.5H4.07031C3.6561 10.5 3.32031 10.1642 3.32031 9.75ZM3.32031 14.25C3.32031 13.8358 3.6561 13.5 4.07031 13.5H20.5703C20.9845 13.5 21.3203 13.8358 21.3203 14.25C21.3203 14.6642 20.9845 15 20.5703 15H4.07031C3.6561 15 3.32031 14.6642 3.32031 14.25ZM3.32031 18.75C3.32031 18.3358 3.6561 18 4.07031 18H20.5703C20.9845 18 21.3203 18.3358 21.3203 18.75C21.3203 19.1642 20.9845 19.5 20.5703 19.5H4.07031C3.6561 19.5 3.32031 19.1642 3.32031 18.75Z" fill="#fff"/>
</svg>
