<svg width="32" height="32" viewBox="0 0 32 32" fill="none" xmlns="http://www.w3.org/2000/svg">
<path d="M14.668 2.66602C21.292 2.66602 26.668 8.04202 26.668 14.666C26.668 21.29 21.292 26.666 14.668 26.666C8.04397 26.666 2.66797 21.29 2.66797 14.666C2.66797 8.04202 8.04397 2.66602 14.668 2.66602ZM14.668 23.9993C19.8246 23.9993 24.0013 19.8227 24.0013 14.666C24.0013 9.50935 19.8246 5.33268 14.668 5.33268C9.5113 5.33268 5.33464 9.50935 5.33464 14.666C5.33464 19.8227 9.5113 23.9993 14.668 23.9993ZM25.9817 24.0941L29.7529 27.8653L27.8673 29.7509L24.0961 25.9797L25.9817 24.0941Z" fill="#ACA6A6"/>
</svg>
